<svg width="128" height="59" viewBox="0 0 128 59" xmlns="http://www.w3.org/2000/svg">
<path d="M-0.00023599 12.7573C-0.0975004 5.68668 5.89399 -0.195788 13.0721 -0.00100417C19.725 0.174301 25.6387 5.78407 25.4247 13.1469C25.2496 19.7111 19.8223 25.691 12.3329 25.5157C5.40767 25.3404 -0.0780475 19.5748 -0.00023599 12.7573ZM21.8648 12.7379C21.8454 7.71243 17.8964 3.58302 12.7025 3.58302C7.48913 3.58302 3.52074 7.77087 3.55964 12.7963C3.57909 17.7243 7.43077 21.9122 12.7025 21.9316C17.9937 21.9511 21.8648 17.7243 21.8648 12.7379Z" fill="#939493"/>
<path d="M25.5222 17.4916C25.5222 20.7639 25.5222 24.0168 25.5222 27.3476C25.8139 27.1723 26.0279 27.0555 26.2614 26.9191C27.8176 25.9841 29.4905 25.5361 31.3191 25.5167C32.9532 25.4972 34.5094 25.8478 35.9489 26.5685C37.6802 27.445 39.0614 28.7111 40.0729 30.3863C41.0456 31.9835 41.5513 33.7171 41.5902 35.6065C41.6097 36.9699 41.4152 38.2945 40.9288 39.5801C40.0146 41.9175 38.4583 43.7289 36.2407 44.9561C35.0735 45.5989 33.8285 45.9884 32.4863 46.1248C29.6267 46.417 27.1173 45.6378 24.9191 43.8069C22.896 42.1317 21.7288 39.9501 21.3203 37.3595C21.1453 36.2882 21.1647 35.2169 21.3592 34.1651C21.3981 33.9313 21.3981 33.6976 21.3981 33.4638C21.3981 30.211 21.3981 26.9581 21.3981 23.6857C21.3981 23.3351 21.4954 23.1208 21.7483 22.8871C23.2851 21.5041 24.4717 19.8679 25.2498 17.9396C25.3082 17.8032 25.3665 17.6474 25.4443 17.5111C25.4443 17.4916 25.4638 17.4916 25.5222 17.4916ZM25.0164 35.8792C25.0358 37.9439 25.8139 39.658 27.4091 40.963C29.6267 42.7745 32.7975 42.8914 35.0735 41.1968C37.1355 39.6774 38.0304 37.6127 37.7386 35.0611C37.544 33.4054 36.8048 32.003 35.5404 30.9317C33.7118 29.3929 31.6498 28.9838 29.3933 29.7045C26.6893 30.6005 24.9775 33.2496 25.0164 35.8792Z" fill="#2FA9E0"/>
</svg>
